<?xml version="1.0" encoding="utf-8"?>
<!-- Generator: Adobe Illustrator 18.0.0, SVG Export Plug-In . SVG Version: 6.00 Build 0)  -->
<!DOCTYPE svg PUBLIC "-//W3C//DTD SVG 1.1//EN" "http://www.w3.org/Graphics/SVG/1.1/DTD/svg11.dtd">
<svg version="1.1" id="Laag_1" xmlns="http://www.w3.org/2000/svg" xmlns:xlink="http://www.w3.org/1999/xlink" x="0px" y="0px"
	 viewBox="0 0 765 490.5" enable-background="new 0 0 765 490.5" xml:space="preserve">
<g>
	<g>
		<path fill="#EEECDD" d="M379,381c12.5-12,24.7-23.7,37-35.5c64.7-62.2,129.3-124.5,194-186.7c28.2-27.1,56.4-54.3,84.5-81.5
			c8.3-8,17.8-11.1,29.1-8.8c19.9,4.1,29.3,29.2,17,45.4c-1.8,2.4-3.9,4.5-6.1,6.6c-103,102-206.1,204-309.1,306
			c-8.2,8.1-16.3,16.2-24.5,24.3c-12.9,12.8-30.8,12.9-43.7,0.1C302.4,396.8,247.7,342.6,193,288.4C136,232,79,175.5,21.9,119.1
			c-9.3-9.1-12.4-19.7-8.3-32.1c5.5-16.2,25.5-24.3,40.6-16.3c3.4,1.8,6.6,4.1,9.3,6.8c55.1,53,110.2,106.1,165.3,159.2
			c49.3,47.4,98.6,94.8,147.8,142.2C377.3,379.5,378,380.1,379,381z"/>
	</g>
</g>
</svg>
